<?xml version="1.0" standalone="no"?><!DOCTYPE svg PUBLIC "-//W3C//DTD SVG 1.1//EN" "http://www.w3.org/Graphics/SVG/1.1/DTD/svg11.dtd"><svg t="1742904253221" class="icon" viewBox="0 0 1024 1024" version="1.1" xmlns="http://www.w3.org/2000/svg" p-id="20120" width="200" height="200" xmlns:xlink="http://www.w3.org/1999/xlink"><path d="M921.59 0H102.4C45.846 0 0 45.844 0 102.398V921.6c0 56.556 45.845 102.398 102.398 102.398h819.193c56.564 0 102.407-45.843 102.407-102.398V102.398C1024 45.844 978.156 0 921.59 0zM516.575 727.55H197.68V308.28h310.876v70.908H282.32v92.982h210.493v70.658H282.32V656.89h234.255v70.66z m310.872 0h-80.352V572.546c0-32.799-1.717-54.027-5.131-63.655a44.549 44.549 0 0 0-16.758-22.435 47.699 47.699 0 0 0-27.895-8.02c-13.912 0-26.359 3.803-37.449 11.458-11.057 7.613-18.672 17.715-22.742 30.308-4.096 12.595-6.143 35.879-6.143 69.783v137.565h-80.351V423.82h74.64v44.62c26.508-34.336 59.854-51.468 100.079-51.468 17.759 0 33.939 3.185 48.614 9.548 14.687 6.414 25.813 14.536 33.32 24.458 7.542 9.921 12.81 21.16 15.733 33.754 2.935 12.595 4.436 30.603 4.436 54.075l-0.001 188.742z" fill="#000000" p-id="20121"></path></svg>