<?xml version="1.0" standalone="no"?><!DOCTYPE svg PUBLIC "-//W3C//DTD SVG 1.1//EN" "http://www.w3.org/Graphics/SVG/1.1/DTD/svg11.dtd"><svg t="1742904111349" class="icon" viewBox="0 0 1024 1024" version="1.1" xmlns="http://www.w3.org/2000/svg" p-id="5265" xmlns:xlink="http://www.w3.org/1999/xlink" width="200" height="200"><path d="M88.192 341.344V146.368h140.064v25.408H117.952v56.8h103.776v25.376H117.952v61.984h114.944v25.408H88.192z m174.912 0V146.368h30.08l99.648 144.992h1.088V146.368h29.76v194.976h-28.96L294.016 194.688h-1.088v146.656h-29.76z m-7.104 512V512a273.056 273.056 0 0 0 273.056-273.056H870.4c37.696 0 68.256 30.56 68.256 68.256v546.144A68.256 68.256 0 0 1 870.4 921.6H324.256A68.256 68.256 0 0 1 256 853.344z m354.72-395.68h-26.752v47.232h-96.96V636.8h25.92v-15.552h71.04v91.456h26.752v-91.456h71.264v15.552h25.92v-131.904h-97.184v-47.232z m-97.76 72.64v65.536h71.008v-65.536h-71.04z m97.76 0v65.536h71.264v-65.536h-71.264z" fill="#000000" p-id="5266"></path></svg>