<?xml version="1.0" standalone="no"?><!DOCTYPE svg PUBLIC "-//W3C//DTD SVG 1.1//EN" "http://www.w3.org/Graphics/SVG/1.1/DTD/svg11.dtd"><svg t="1742904129455" class="icon" viewBox="0 0 1024 1024" version="1.1" xmlns="http://www.w3.org/2000/svg" p-id="6574" xmlns:xlink="http://www.w3.org/1999/xlink" width="200" height="200"><path d="M242.624 163.584V116.32h26.752v47.264h97.216v131.872h-25.92v-15.552H269.344v91.456h-26.752V279.904H171.616v15.552h-25.92V163.584h96.928z m-71.008 25.376v65.536h71.008V188.96H171.616z m97.76 0v65.536h71.264V188.96H269.376zM256 853.344V512a273.056 273.056 0 0 0 273.056-273.056H870.4c37.696 0 68.256 30.56 68.256 68.256v546.144A68.256 68.256 0 0 1 870.4 921.6H324.256A68.256 68.256 0 0 1 256 853.344z m313.6-365.632h-140.096v194.944h144.736v-25.376h-114.976v-61.984h103.776v-25.408h-103.744v-56.8H569.6v-25.376z m64.896 0h-30.048v194.944h29.76v-146.624h1.088l100.8 146.624h28.928v-194.944h-29.76v144.96h-1.12l-99.648-144.96z" fill="#000000" p-id="6575"></path></svg>